<svg width="238" height="36" viewBox="0 0 238 36" fill="none" xmlns="http://www.w3.org/2000/svg">
<path d="M14.2388 2.3374C12.7364 4.49357 14.2286 10.1942 14.5552 12.779L15.8209 12.4626C15.4689 9.67733 15.7985 4.62035 14.2388 2.3374Z" fill="#1D5FEE"/>
<path d="M18.3526 2.65381L16.1377 12.4626L17.4033 12.779L19.3018 2.97022L18.3526 2.65381Z" fill="#1D5FEE"/>
<path d="M9.17592 3.91944L12.6565 13.0954L6.64462 5.81792L5.37897 6.13433L11.3908 14.3611L2.84766 8.98205L2.53125 10.2477L11.0744 15.6267L12.6565 13.0954L14.2385 12.779L10.4416 3.60303L9.17592 3.91944Z" fill="#1D5FEE"/>
<path d="M22.4659 3.91943L17.7197 13.0954C19.9271 13.4295 23.9619 5.6274 22.4659 3.91943Z" fill="#1D5FEE"/>
<path d="M19.3018 14.3608C22.1481 13.7607 25.5818 9.3976 27.2121 7.08326C24.557 6.86082 19.9838 11.9309 19.3018 14.3608Z" fill="#1D5FEE"/>
<path d="M0.949225 13.0952L0.632812 14.0445C3.30884 15.4489 7.41933 16.7541 10.4416 16.8922C9.62248 14.5366 3.24157 13.5696 0.949225 13.0952Z" fill="#1D5FEE"/>
<path d="M0 17.5254V18.791H10.1252V17.5254H0Z" fill="#1D5FEE"/>
<path d="M21.1992 18.7908L31.3244 18.4744V17.8416C29.3155 17.2478 21.9548 16.5143 21.1992 18.7908Z" fill="#1D5FEE"/>
<path d="M20.8838 19.4238C21.705 21.7839 28.0866 22.747 30.3762 23.2208L30.6926 22.9044V22.2715C27.9993 20.858 23.9254 19.5564 20.8838 19.4238Z" fill="#1D5FEE"/>
<path d="M20.5664 20.6895L19.9336 21.9551L28.4767 27.3341L28.7932 26.0685L20.5664 20.6895Z" fill="#1D5FEE"/>
<path d="M4.42969 29.2325L4.7461 29.5489L12.34 22.9042C10.3012 21.0307 5.27948 27.4102 4.42969 29.2325Z" fill="#1D5FEE"/>
<path d="M20.8833 32.7127H22.1489L18.6684 22.9039H18.9848C20.2824 25.4187 23.0503 29.2698 25.6294 30.4978L25.9459 30.1814C24.9225 27.8852 22.4579 24.595 20.4753 23.0182C19.6299 22.3458 18.0292 22.4976 17.6268 23.6603C16.9124 25.7249 20.2989 30.5772 20.8833 32.7127Z" fill="#1D5FEE"/>
<path d="M12.3395 22.9043C11.4553 25.0282 7.12754 30.5286 8.85898 32.3967L13.6052 23.2207L12.3395 22.9043Z" fill="#1D5FEE"/>
<path d="M13.9219 23.5371L12.3398 33.6623C15.2464 32.8121 13.6353 26.0902 15.8204 24.1699C15.8204 26.195 15.5273 33.0213 17.7189 33.6623C17.7175 31.6256 18.1304 25.6525 16.7608 24.1155C16.2057 23.4925 14.6921 23.6208 13.9219 23.5371Z" fill="#1D5FEE"/>
<path d="M44.3594 27.3479C42.2388 27.3479 40.5572 26.7515 39.3146 25.5586C38.0721 24.3492 37.4508 22.6096 37.4508 20.3399V16.2643C37.4508 13.9946 38.0721 12.2633 39.3146 11.0705C40.5572 9.86104 42.2388 9.25633 44.3594 9.25633C46.4469 9.25633 48.0539 9.83619 49.1805 10.9959C50.3237 12.1556 50.8952 13.7378 50.8952 15.7425V15.8916H48.2362V15.6679C48.2362 14.4916 47.9131 13.5307 47.267 12.7852C46.6374 12.0397 45.6682 11.6669 44.3594 11.6669C43.034 11.6669 41.9985 12.0728 41.253 12.8846C40.5075 13.6798 40.1347 14.7898 40.1347 16.2146V20.3896C40.1347 21.7978 40.5075 22.9079 41.253 23.7197C41.9985 24.5315 43.034 24.9374 44.3594 24.9374C45.6682 24.9374 46.6374 24.5646 47.267 23.8191C47.9131 23.057 48.2362 22.0961 48.2362 20.9363V20.5139H50.8952V20.8618C50.8952 22.8664 50.3237 24.4486 49.1805 25.6083C48.0539 26.7681 46.4469 27.3479 44.3594 27.3479ZM53.9414 27V14.7484H56.4514V16.1898H56.849C57.0478 15.6762 57.3626 15.3034 57.7933 15.0715C58.2407 14.823 58.7874 14.6987 59.4335 14.6987H60.8997V17.0099H59.3341C58.5057 17.0099 57.8265 17.2418 57.2963 17.7057C56.7662 18.153 56.5011 18.8488 56.5011 19.7932V27H53.9414ZM68.4828 27.3479C67.2402 27.3479 66.1551 27.0911 65.2273 26.5775C64.2995 26.0474 63.5706 25.3101 63.0404 24.3658C62.5268 23.4049 62.27 22.2949 62.27 21.0357V20.7375C62.27 19.4618 62.5268 18.3518 63.0404 17.4075C63.554 16.4466 64.2664 15.7093 65.1776 15.1957C66.1054 14.6656 67.174 14.4005 68.3834 14.4005C69.5597 14.4005 70.5869 14.6656 71.4649 15.1957C72.3596 15.7093 73.0554 16.43 73.5524 17.3578C74.0494 18.2856 74.2979 19.3707 74.2979 20.6133V21.5825H64.8794C64.9125 22.6593 65.2687 23.5208 65.948 24.167C66.6438 24.7965 67.5053 25.1113 68.5325 25.1113C69.4934 25.1113 70.2141 24.8959 70.6945 24.4652C71.1916 24.0344 71.5726 23.5374 71.8377 22.9741L73.95 24.0676C73.7181 24.5315 73.3785 25.0202 72.9311 25.5338C72.5004 26.0474 71.9288 26.4781 71.2164 26.826C70.504 27.174 69.5928 27.3479 68.4828 27.3479ZM64.9042 19.6192H71.6886C71.6223 18.6915 71.291 17.9708 70.6945 17.4572C70.0981 16.927 69.3194 16.662 68.3585 16.662C67.3976 16.662 66.6107 16.927 65.9977 17.4572C65.4013 17.9708 65.0368 18.6915 64.9042 19.6192ZM80.9328 27.3479C80.0547 27.3479 79.2678 27.1988 78.5719 26.9006C77.8927 26.6024 77.346 26.1633 76.9318 25.5835C76.5342 25.0036 76.3353 24.2995 76.3353 23.4711C76.3353 22.6262 76.5342 21.9304 76.9318 21.3837C77.346 20.8204 77.901 20.3979 78.5968 20.1163C79.3092 19.8346 80.1127 19.6938 81.0074 19.6938H84.735V18.8985C84.735 18.1862 84.5196 17.6146 84.0889 17.1838C83.6581 16.7531 82.9954 16.5377 82.1008 16.5377C81.2227 16.5377 80.5517 16.7448 80.0879 17.159C79.624 17.5732 79.3175 18.1116 79.1684 18.7743L76.7827 18.0039C76.9815 17.3412 77.2963 16.7448 77.727 16.2146C78.1743 15.6679 78.7625 15.2289 79.4914 14.8975C80.2204 14.5662 81.0985 14.4005 82.1256 14.4005C83.7161 14.4005 84.967 14.8064 85.8782 15.6182C86.7894 16.43 87.245 17.5814 87.245 19.0725V24.1173C87.245 24.6143 87.4769 24.8628 87.9408 24.8628H88.9845V27H87.071C86.4912 27 86.019 26.8509 85.6545 26.5527C85.29 26.2545 85.1078 25.8486 85.1078 25.335V25.2604H84.735C84.6025 25.5089 84.4037 25.7989 84.1386 26.1302C83.8735 26.4616 83.4842 26.7515 82.9706 27C82.457 27.2319 81.7777 27.3479 80.9328 27.3479ZM81.3056 25.2356C82.3327 25.2356 83.1611 24.9456 83.7907 24.3658C84.4202 23.7694 84.735 22.9576 84.735 21.9304V21.6819H81.1565C80.4772 21.6819 79.9305 21.831 79.5163 22.1292C79.1021 22.4108 78.895 22.8333 78.895 23.3966C78.895 23.9599 79.1104 24.4072 79.5411 24.7386C79.9719 25.0699 80.56 25.2356 81.3056 25.2356ZM94.9729 27C94.2273 27 93.6309 26.7763 93.1836 26.329C92.7528 25.8817 92.5375 25.2853 92.5375 24.5397V16.9105H89.1577V14.7484H92.5375V10.6977H95.0971V14.7484H98.7502V16.9105H95.0971V24.0924C95.0971 24.5894 95.3291 24.838 95.793 24.838H98.3526V27H94.9729ZM101.509 27V14.7484H104.069V27H101.509ZM102.801 13.0834C102.304 13.0834 101.882 12.926 101.534 12.6112C101.202 12.2799 101.037 11.8574 101.037 11.3438C101.037 10.8302 101.202 10.416 101.534 10.1013C101.882 9.76992 102.304 9.60425 102.801 9.60425C103.315 9.60425 103.737 9.76992 104.069 10.1013C104.4 10.416 104.566 10.8302 104.566 11.3438C104.566 11.8574 104.4 12.2799 104.069 12.6112C103.737 12.926 103.315 13.0834 102.801 13.0834ZM110.452 27L106.327 14.7484H109.035L112.291 25.1113H112.688L115.944 14.7484H118.653L114.527 27H110.452ZM126.067 27.3479C124.825 27.3479 123.74 27.0911 122.812 26.5775C121.884 26.0474 121.155 25.3101 120.625 24.3658C120.111 23.4049 119.855 22.2949 119.855 21.0357V20.7375C119.855 19.4618 120.111 18.3518 120.625 17.4075C121.139 16.4466 121.851 15.7093 122.762 15.1957C123.69 14.6656 124.759 14.4005 125.968 14.4005C127.144 14.4005 128.171 14.6656 129.05 15.1957C129.944 15.7093 130.64 16.43 131.137 17.3578C131.634 18.2856 131.883 19.3707 131.883 20.6133V21.5825H122.464C122.497 22.6593 122.853 23.5208 123.533 24.167C124.228 24.7965 125.09 25.1113 126.117 25.1113C127.078 25.1113 127.799 24.8959 128.279 24.4652C128.776 24.0344 129.157 23.5374 129.422 22.9741L131.535 24.0676C131.303 24.5315 130.963 25.0202 130.516 25.5338C130.085 26.0474 129.513 26.4781 128.801 26.826C128.089 27.174 127.177 27.3479 126.067 27.3479ZM122.489 19.6192H129.273C129.207 18.6915 128.876 17.9708 128.279 17.4572C127.683 16.927 126.904 16.662 125.943 16.662C124.982 16.662 124.195 16.927 123.582 17.4572C122.986 17.9708 122.621 18.6915 122.489 19.6192Z" fill="white"/>
<path d="M141.226 27.3479C139.039 27.3479 137.3 26.7515 136.007 25.5586C134.715 24.3492 134.069 22.6262 134.069 20.3896V16.2146C134.069 13.978 134.715 12.2633 136.007 11.0705C137.3 9.86104 139.039 9.25633 141.226 9.25633C143.413 9.25633 145.153 9.86104 146.445 11.0705C147.737 12.2633 148.383 13.978 148.383 16.2146V20.3896C148.383 22.6262 147.737 24.3492 146.445 25.5586C145.153 26.7515 143.413 27.3479 141.226 27.3479ZM141.226 24.4155C142.452 24.4155 143.405 24.0593 144.084 23.3469C144.763 22.6345 145.103 21.6819 145.103 20.489V16.1152C145.103 14.9224 144.763 13.9698 144.084 13.2574C143.405 12.545 142.452 12.1888 141.226 12.1888C140.017 12.1888 139.064 12.545 138.368 13.2574C137.689 13.9698 137.349 14.9224 137.349 16.1152V20.489C137.349 21.6819 137.689 22.6345 138.368 23.3469C139.064 24.0593 140.017 24.4155 141.226 24.4155ZM153.696 27L149.769 14.6739H153.1L155.957 24.7137H156.405L159.263 14.6739H162.593L158.666 27H153.696ZM169.73 27.3479C168.504 27.3479 167.419 27.0911 166.474 26.5775C165.547 26.0474 164.818 25.3101 164.288 24.3658C163.774 23.4049 163.517 22.2783 163.517 20.986V20.6878C163.517 19.3956 163.774 18.2773 164.288 17.3329C164.801 16.372 165.522 15.6348 166.45 15.1212C167.377 14.591 168.454 14.326 169.68 14.326C170.89 14.326 171.942 14.5993 172.836 15.146C173.731 15.6762 174.427 16.4217 174.924 17.3826C175.421 18.327 175.669 19.4287 175.669 20.6878V21.7564H166.698C166.731 22.6014 167.046 23.2889 167.642 23.8191C168.239 24.3492 168.968 24.6143 169.829 24.6143C170.707 24.6143 171.354 24.4238 171.768 24.0427C172.182 23.6617 172.497 23.2392 172.712 22.7753L175.272 24.1173C175.04 24.548 174.7 25.0202 174.253 25.5338C173.822 26.0308 173.242 26.4616 172.513 26.826C171.784 27.174 170.857 27.3479 169.73 27.3479ZM166.723 19.4204H172.488C172.422 18.708 172.132 18.1364 171.619 17.7057C171.122 17.2749 170.467 17.0596 169.655 17.0596C168.81 17.0596 168.139 17.2749 167.642 17.7057C167.145 18.1364 166.839 18.708 166.723 19.4204ZM178.208 27V14.6739H181.289V16.0655H181.737C181.919 15.5685 182.217 15.204 182.631 14.9721C183.062 14.7401 183.559 14.6242 184.122 14.6242H185.613V17.4075H184.073C183.277 17.4075 182.623 17.6229 182.109 18.0536C181.596 18.4678 181.339 19.1139 181.339 19.992V27H178.208ZM189.85 27V17.2584H186.719V14.6739H189.85V12.3876C189.85 11.5426 190.099 10.8717 190.596 10.3746C191.109 9.86104 191.772 9.60425 192.584 9.60425H195.814V12.1888H193.677C193.213 12.1888 192.981 12.4373 192.981 12.9343V14.6739H196.212V17.2584H192.981V27H189.85ZM197.952 27V9.60425H201.083V27H197.952ZM210.174 27.3479C208.948 27.3479 207.846 27.0994 206.869 26.6024C205.891 26.1054 205.121 25.3847 204.558 24.4403C203.994 23.496 203.713 22.3611 203.713 21.0357V20.6381C203.713 19.3127 203.994 18.1779 204.558 17.2335C205.121 16.2892 205.891 15.5685 206.869 15.0715C207.846 14.5745 208.948 14.326 210.174 14.326C211.4 14.326 212.502 14.5745 213.479 15.0715C214.457 15.5685 215.227 16.2892 215.79 17.2335C216.354 18.1779 216.635 19.3127 216.635 20.6381V21.0357C216.635 22.3611 216.354 23.496 215.79 24.4403C215.227 25.3847 214.457 26.1054 213.479 26.6024C212.502 27.0994 211.4 27.3479 210.174 27.3479ZM210.174 24.5646C211.135 24.5646 211.93 24.2581 212.56 23.6451C213.189 23.0155 213.504 22.1209 213.504 20.9612V20.7127C213.504 19.553 213.189 18.6666 212.56 18.0536C211.947 17.4241 211.152 17.1093 210.174 17.1093C209.213 17.1093 208.418 17.4241 207.788 18.0536C207.159 18.6666 206.844 19.553 206.844 20.7127V20.9612C206.844 22.1209 207.159 23.0155 207.788 23.6451C208.418 24.2581 209.213 24.5646 210.174 24.5646ZM220.223 27L218.483 14.6739H221.589L222.683 24.8877H223.13L224.721 14.6739H229.741L231.331 24.8877H231.778L232.872 14.6739H235.978L234.239 27H229.045L227.454 16.7862H227.007L225.417 27H220.223Z" fill="url(#paint0_linear_106_1987)"/>
<defs>
<linearGradient id="paint0_linear_106_1987" x1="136.98" y1="18" x2="234.195" y2="24.8093" gradientUnits="userSpaceOnUse">
<stop stop-color="#113FA3"/>
<stop offset="1" stop-color="#407DFF"/>
</linearGradient>
</defs>
</svg>
